<?xml version="1.0" encoding="UTF-8"?> <svg xmlns="http://www.w3.org/2000/svg" width="60" height="60" viewBox="0 0 60 60" fill="none"><path d="M12.0513 29.7466H3.09375C2.48967 29.7466 2 30.2285 2 30.8229V53.9237C2 54.5181 2.48967 55 3.09375 55H12.0513C12.6554 55 13.1451 54.5181 13.1451 53.9237V30.8229C13.1451 30.2285 12.6554 29.7466 12.0513 29.7466ZM10.9576 52.8474H4.1875V31.8992H10.9576V52.8474ZM25.8178 18.7978H16.8602C16.2561 18.7978 15.7665 19.2796 15.7665 19.8741V53.9237C15.7665 54.5181 16.2561 55 16.8602 55H25.8178C26.4219 55 26.9116 54.5181 26.9116 53.9237V19.8741C26.9116 19.2797 26.4219 18.7978 25.8178 18.7978ZM24.7241 52.8474H17.954V20.9503H24.7241V52.8474ZM39.5843 24.0866H30.6267C30.0226 24.0866 29.5329 24.5685 29.5329 25.1629V53.9237C29.5329 54.5181 30.0226 55 30.6267 55H39.5843C40.1883 55 40.678 54.5181 40.678 53.9237V25.1629C40.678 24.5685 40.1883 24.0866 39.5843 24.0866ZM38.4905 52.8474H31.7204V26.2392H38.4905V52.8474ZM57.6796 13.2212L49.6452 5.31522C49.2181 4.89493 48.5256 4.89493 48.0983 5.31522L40.0641 13.2212C39.7513 13.529 39.6578 13.992 39.8271 14.3941C39.9964 14.7963 40.3952 15.0585 40.8376 15.0585H43.2993V53.9237C43.2993 54.5181 43.789 55 44.393 55H53.3506C53.9547 55 54.4444 54.5181 54.4444 53.9237V15.0585H56.9062C57.3485 15.0585 57.7474 14.7962 57.9167 14.3941C58.086 13.992 57.9924 13.529 57.6796 13.2212ZM53.3507 12.906C52.7467 12.906 52.257 13.3878 52.257 13.9822V52.8474H45.4869V13.9822C45.4869 13.3878 44.9972 12.906 44.3932 12.906H43.4782L48.8719 7.59835L54.2657 12.906H53.3507Z" fill="#E5750F"></path></svg> 