<?xml version="1.0" encoding="UTF-8"?> <svg xmlns="http://www.w3.org/2000/svg" width="60" height="60" viewBox="0 0 60 60" fill="none"><path d="M35.4806 29.5232C39.2216 26.9484 45.4434 20.8846 45.6895 8.99995C46.2621 8.84619 46.7682 8.50811 47.1294 8.03797C47.4907 7.56782 47.6871 6.99178 47.6882 6.39886V2.95636C47.6882 2.7388 47.6018 2.53015 47.4479 2.37631C47.2941 2.22247 47.0855 2.13605 46.8679 2.13605H13.132C12.9144 2.13605 12.7057 2.22247 12.5519 2.37631C12.3981 2.53015 12.3116 2.7388 12.3116 2.95636V6.40073C12.3132 6.99333 12.5098 7.56894 12.871 8.03871C13.2322 8.50848 13.7381 8.84627 14.3104 8.99995C14.5565 20.8828 20.7791 26.9465 24.5193 29.5214C24.5966 29.5746 24.6597 29.6458 24.7033 29.7288C24.747 29.8119 24.7698 29.9043 24.7698 29.9981C24.7698 30.0919 24.747 30.1843 24.7033 30.2673C24.6597 30.3504 24.5966 30.4216 24.5193 30.4748C20.7782 33.0515 14.5565 39.1153 14.3104 51C13.7378 51.1537 13.2317 51.4918 12.8704 51.9619C12.5092 52.4321 12.3128 53.0081 12.3116 53.601V57.0454C12.3116 57.263 12.3981 57.4716 12.5519 57.6255C12.7057 57.7793 12.9144 57.8657 13.132 57.8657H46.8679C47.0855 57.8657 47.2941 57.7793 47.4479 57.6255C47.6018 57.4716 47.6882 57.263 47.6882 57.0454V53.601C47.6871 53.0081 47.4907 52.4321 47.1294 51.9619C46.7682 51.4918 46.2621 51.1537 45.6895 51C45.4434 39.1171 39.2207 33.0534 35.4806 30.4785C35.4033 30.4253 35.3401 30.3541 35.2965 30.2711C35.2529 30.188 35.2301 30.0956 35.2301 30.0018C35.2301 29.908 35.2529 29.8156 35.2965 29.7326C35.3401 29.6495 35.4033 29.5783 35.4806 29.5251V29.5232ZM13.9523 6.40073V3.77573H46.0476V6.40073C46.0473 6.68038 45.9361 6.9485 45.7384 7.14624C45.5407 7.34398 45.2725 7.45517 44.9929 7.45542H15.007C14.7273 7.45517 14.4592 7.34398 14.2615 7.14624C14.0637 6.9485 13.9525 6.68038 13.9523 6.40073ZM46.0476 53.5992V56.2242H13.9523V53.5992C13.9525 53.3195 14.0637 53.0514 14.2615 52.8537C14.4592 52.6559 14.7273 52.5447 15.007 52.5445H44.9929C45.2725 52.5447 45.5407 52.6559 45.7384 52.8537C45.9361 53.0514 46.0473 53.3195 46.0476 53.5992ZM19.7076 50.9062C19.7417 49.5579 19.8827 48.2145 20.1295 46.8885C20.1754 46.6586 20.274 46.4424 20.4174 46.2569C20.5609 46.0714 20.7453 45.9216 20.9563 45.8193L26.0334 43.335C27.2668 42.7265 28.6237 42.41 29.999 42.41C31.3743 42.41 32.7312 42.7265 33.9646 43.335L39.0412 45.8193C39.2522 45.9215 39.4366 46.0712 39.5801 46.2566C39.7235 46.4421 39.8221 46.6582 39.8681 46.8881C40.1148 48.2142 40.2558 49.5578 40.2899 50.9062H19.7076ZM34.5501 31.8281C38.0188 34.2145 43.7741 39.8348 44.0474 50.9062H41.9329C41.8982 49.4544 41.7469 48.0077 41.4806 46.5801C41.3866 46.1 41.1826 45.6483 40.8847 45.2602C40.5868 44.8722 40.203 44.5585 39.7635 44.3437L34.6874 41.8593C33.2295 41.14 31.6256 40.7658 29.9999 40.7658C28.3742 40.7658 26.7703 41.14 25.3124 41.8593L20.2363 44.3437C19.7969 44.5583 19.4132 44.8718 19.1153 45.2595C18.8174 45.6473 18.6134 46.0988 18.5193 46.5787C18.253 48.0061 18.1017 49.4527 18.067 50.9043H15.9524C16.2257 39.8343 21.9843 34.214 25.4493 31.8281C25.7458 31.6242 25.9883 31.3512 26.1558 31.0327C26.3233 30.7143 26.4109 30.3598 26.4109 30C26.4109 29.6401 26.3233 29.2856 26.1558 28.9672C25.9883 28.6487 25.7458 28.3757 25.4493 28.1718C21.9806 25.7854 16.2257 20.1651 15.9524 9.0937H44.0474C43.7741 20.1656 38.0156 25.7859 34.5501 28.1718C34.2537 28.3758 34.0113 28.6488 33.8438 28.9672C33.6764 29.2857 33.5889 29.6401 33.5889 30C33.5889 30.3598 33.6764 30.7142 33.8438 31.0327C34.0113 31.3511 34.2537 31.6241 34.5501 31.8281Z" fill="#E5750F"></path><path d="M40.9395 15.6684C40.9828 15.521 40.9839 15.3644 40.9425 15.2164C40.9012 15.0685 40.8191 14.9351 40.7057 14.8314C40.5923 14.7278 40.452 14.6582 40.3009 14.6303C40.1498 14.6025 39.9939 14.6177 39.8511 14.6742C34.5748 16.7606 32.5775 15.8367 30.2651 14.7679C28.9477 14.0805 27.5197 13.6299 26.0464 13.4367C23.7553 13.1794 21.4406 13.6342 19.4173 14.7393C19.2643 14.8338 19.1466 14.976 19.0822 15.1439C19.0178 15.3119 19.0104 15.4963 19.0611 15.6689C21.5567 24.1636 27.8778 27.2076 28.1736 27.3454C28.7499 27.6074 29.3756 27.7432 30.0087 27.7439C30.64 27.7444 31.2638 27.6074 31.8368 27.3426L31.8879 27.3192C32.1523 27.1936 38.4486 24.15 40.9395 15.6684ZM31.2054 25.8281L31.1454 25.8557C30.784 26.0232 30.3903 26.1094 29.9921 26.1082C29.5938 26.1071 29.2006 26.0187 28.8401 25.8492C28.6057 25.7395 23.2409 23.1539 20.8367 15.8578C22.4171 15.1626 24.1514 14.8912 25.8687 15.0703C27.165 15.2457 28.4205 15.6472 29.5779 16.2567C31.7759 17.2725 34.0418 18.3192 38.8339 16.7831C36.3073 23.3611 31.4112 25.7287 31.2054 25.8281Z" fill="#E5750F"></path></svg> 