<?xml version="1.0" encoding="UTF-8"?> <svg xmlns="http://www.w3.org/2000/svg" width="60" height="60" viewBox="0 0 60 60" fill="none"><path d="M54.3885 27.4569L58.3251 25.3734L55.6662 17.281L51.2533 17.8835L48.2253 13.7624L50.1901 9.74957L43.243 4.75513L39.9955 7.83749L35.0853 6.25889L34.2902 1.875H25.7099L24.9148 6.25889L20.0046 7.83749L16.7573 4.75525L9.81013 9.74968L11.7749 13.7624L8.74686 17.8836L4.3339 17.2812L1.6751 25.3735L5.61164 27.4569V32.5431L1.67505 34.6266L4.33403 42.719L8.74687 42.1165L11.7749 46.2376L9.81008 50.2504L16.7573 55.2449L20.0046 52.1625L24.9148 53.7411L25.71 58.125H34.2902L35.0854 53.7411L39.9956 52.1625L43.2429 55.2448L50.1901 50.2503L48.2253 46.2376L51.2534 42.1164L55.6663 42.7188L58.3251 34.6265L54.3886 32.5431L54.3885 27.4569ZM54.3724 40.6498L50.4024 40.108L46.042 46.0423L47.8096 49.6525L43.4082 52.8166L40.4801 50.0374L33.4411 52.3001L32.7247 56.25H27.2755L26.5591 52.3001L19.5201 50.0374L16.5919 52.8167L12.1905 49.6526L13.9582 46.0423L9.59773 40.1079L5.62778 40.6499L3.95013 35.544L7.48664 33.6722V26.3278L3.95013 24.4561L5.62772 19.3501L9.59784 19.892L13.9582 13.9577L12.1906 10.3475L16.592 7.18345L19.52 9.96265L26.5591 7.69992L27.2755 3.75H32.7246L33.441 7.69993L40.4801 9.96265L43.4083 7.18334L47.8096 10.3474L46.042 13.9577L50.4024 19.8921L54.3724 19.3501L56.05 24.456L52.5135 26.3278L52.5136 33.6722L56.0501 35.5439L54.3724 40.6498Z" fill="#E5750F"></path><path d="M30 10.3125C19.1442 10.3125 10.3125 19.1442 10.3125 30C10.3125 40.8558 19.1442 49.6875 30 49.6875C40.8558 49.6875 49.6875 40.8558 49.6875 30C49.6875 19.1442 40.8558 10.3125 30 10.3125ZM30 47.8125C20.1782 47.8125 12.1875 39.8219 12.1875 30C12.1875 20.1781 20.1782 12.1875 30 12.1875C39.8218 12.1875 47.8125 20.1781 47.8125 30C47.8125 39.8219 39.8218 47.8125 30 47.8125Z" fill="#E5750F"></path><path d="M40.7921 21.1475L31.4172 15.6788C30.9869 15.4283 30.4979 15.2963 30 15.2963C29.5021 15.2963 29.0132 15.4283 28.5829 15.6788L19.2078 21.1475C18.7838 21.3959 18.4321 21.7507 18.1874 22.1768C17.9427 22.6029 17.8135 23.0855 17.8125 23.5768V36.4231C17.8135 36.9144 17.9427 37.397 18.1874 37.8231C18.4322 38.2492 18.7839 38.604 19.2079 38.8524L28.5828 44.3211C29.0131 44.5716 29.5021 44.7035 30 44.7035C30.4979 44.7035 30.9868 44.5716 31.4171 44.3211L40.7922 38.8524C41.2162 38.604 41.5679 38.2492 41.8126 37.8231C42.0573 37.397 42.1865 36.9144 42.1875 36.4231V23.5768C42.1865 23.0855 42.0573 22.6029 41.8126 22.1768C41.5678 21.7507 41.2161 21.3959 40.7921 21.1475ZM29.5276 17.2984C29.6711 17.2149 29.8341 17.1709 30 17.1709C30.166 17.1709 30.329 17.2149 30.4724 17.2984L39.3894 22.5L30.4724 27.7015C30.3289 27.7851 30.1659 27.8291 30 27.8291C29.834 27.8291 29.671 27.7851 29.5276 27.7015L27.9564 26.785L32.4296 24.1011L27.1177 20.9768L22.6227 23.6737L20.6105 22.4999L29.5276 17.2984ZM23.3724 26.2817L25.2489 27.3763L25.248 30.1333L23.3724 29.0308V26.2817ZM24.4705 24.7516L27.1272 23.1575L28.7586 24.1171L26.1086 25.7071L24.4705 24.7516ZM20.1527 37.2328C20.0114 37.15 19.8941 37.0318 19.8125 36.8898C19.7309 36.7477 19.6878 36.5869 19.6875 36.4231V24.1322L21.4974 25.1879V30.1035L27.1219 33.4097L27.1235 28.4699L28.5828 29.3211C28.7354 29.4097 28.896 29.4838 29.0625 29.5422V42.4302L20.1527 37.2328ZM39.8474 37.2328L30.9375 42.4302V29.5423C31.104 29.4838 31.2646 29.4098 31.4171 29.3211L40.3125 24.1321V36.4231C40.3122 36.5868 40.2691 36.7477 40.1875 36.8897C40.1059 37.0318 39.9887 37.15 39.8474 37.2328Z" fill="#E5750F"></path></svg> 