<?xml version="1.0" encoding="UTF-8"?> <svg xmlns="http://www.w3.org/2000/svg" width="61" height="60" viewBox="0 0 61 60" fill="none"><g clip-path="url(#clip0)"><path d="M11.2813 14.8687L22.5313 21.4312C22.6732 21.5155 22.8349 21.5608 23 21.5625C23.081 21.5717 23.1628 21.5717 23.2438 21.5625C23.4829 21.4925 23.687 21.3352 23.8156 21.1219L30.6406 9.24375L33.8188 14.5406L30.1531 16.0031C29.9686 16.0765 29.8122 16.2067 29.7064 16.3747C29.6006 16.5428 29.5509 16.7401 29.5644 16.9382C29.578 17.1363 29.6541 17.325 29.7818 17.4771C29.9095 17.6292 30.0822 17.7368 30.275 17.7844L45.275 21.5344C45.3486 21.5528 45.4241 21.5623 45.5 21.5625C45.684 21.5623 45.8639 21.508 46.0173 21.4063C46.1707 21.3047 46.2907 21.1601 46.3625 20.9906L51.9875 7.86563C52.0613 7.69371 52.0821 7.50364 52.047 7.31986C52.0119 7.13608 51.9226 6.967 51.7906 6.83438C51.6572 6.70049 51.4865 6.61005 51.3008 6.57492C51.1151 6.53978 50.9231 6.5616 50.75 6.6375L47.1875 8.18437L43.8219 2.34375C43.4105 1.63118 42.8188 1.03945 42.1062 0.628036C41.3936 0.216623 40.5853 2.15812e-05 39.7625 6.78624e-07H26.75C26.5845 2.95357e-05 26.422 0.0438548 26.279 0.127025C26.1359 0.210194 26.0174 0.329745 25.9355 0.473533C25.8536 0.61732 25.8113 0.780221 25.8127 0.945688C25.8142 1.11115 25.8594 1.27329 25.9438 1.41563L29.5625 7.39688L22.6625 19.3406L13.025 13.7156L18.9313 3.3C19.1767 2.86731 19.5324 2.50745 19.9623 2.25711C20.3921 2.00677 20.8807 1.87492 21.3781 1.875H24.875V6.78624e-07H21.3781C20.5494 -0.000445203 19.7353 0.218837 19.0189 0.635499C18.3025 1.05216 17.7094 1.65131 17.3 2.37188L10.9344 13.6219C10.8209 13.8345 10.7936 14.0826 10.8582 14.3148C10.9227 14.5469 11.0743 14.7453 11.2813 14.8687ZM39.7625 1.875C40.2565 1.87468 40.7419 2.00449 41.1698 2.25135C41.5977 2.49822 41.953 2.85343 42.2 3.28125L45.95 9.84375C46.0646 10.0426 46.2481 10.1925 46.4658 10.2651C46.6835 10.3376 46.9203 10.3278 47.1313 10.2375L49.2969 9.3L44.9188 19.5187L33.5 16.7062L35.4969 15.9094C35.6236 15.8593 35.738 15.7822 35.8319 15.6834C35.9258 15.5847 35.997 15.4666 36.0406 15.3375C36.0835 15.2094 36.0981 15.0735 36.0835 14.9392C36.069 14.8049 36.0256 14.6753 35.9563 14.5594L28.4094 1.875H39.7625Z" fill="#E5750F"></path><path d="M26.75 40.3124H13.6813L16.6906 34.8936L19.7938 37.3311C19.9534 37.4463 20.1453 37.5083 20.3422 37.5083C20.5391 37.5083 20.731 37.4463 20.8906 37.3311C21.0571 37.2211 21.1841 37.0609 21.2533 36.8738C21.3224 36.6866 21.33 36.4823 21.275 36.2905L17.0188 21.4686C16.956 21.2558 16.8199 21.0721 16.6345 20.9503C16.4491 20.8284 16.2265 20.7762 16.0063 20.803L1.83125 22.4999C1.64377 22.5209 1.467 22.5981 1.32405 22.7212C1.1811 22.8443 1.07863 23.0077 1.03002 23.19C0.981405 23.3723 0.988924 23.565 1.05159 23.7429C1.11425 23.9209 1.22915 24.0758 1.38125 24.1874L4.50313 26.4936L1.12813 32.3249C0.716714 33.0375 0.500122 33.8458 0.500122 34.6686C0.500122 35.4915 0.716714 36.2998 1.12813 37.0124L7.63438 48.2624C7.71618 48.4041 7.83364 48.5219 7.97508 48.6041C8.11652 48.6864 8.27702 48.7301 8.44063 48.7311H8.36563C8.53109 48.7283 8.69283 48.6816 8.83444 48.596C8.97605 48.5104 9.09247 48.3888 9.17188 48.2436L12.5469 42.1874H25.8125L25.7563 53.4374L14.2156 53.5218C14.2156 53.5218 12.2094 53.1186 11.7219 52.3311L10.2406 49.5186L8.51563 50.3061L10.025 53.1186C10.8781 54.4968 14.1969 55.2561 14.1969 55.2561H26.6656C27.2 55.2561 27.6875 54.3186 27.6875 54.3186V41.2499C27.6431 41.0118 27.5506 40.7853 27.4156 40.5843C27.3308 40.4937 27.2274 40.4226 27.1125 40.3757C26.9976 40.3287 26.874 40.3071 26.75 40.3124ZM8.43125 45.8718L2.75 36.0468C2.50315 35.6192 2.3732 35.1342 2.3732 34.6405C2.3732 34.1468 2.50315 33.6618 2.75 33.2343L6.5 26.6718C6.6169 26.4719 6.65572 26.2359 6.60898 26.0091C6.56225 25.7824 6.43327 25.581 6.24688 25.4436L4.37188 24.0374L15.4156 22.7249L18.6688 34.0311L16.9813 32.6999C16.8749 32.6174 16.752 32.5588 16.621 32.5281C16.4899 32.4974 16.3538 32.4952 16.2219 32.5218C16.0887 32.5476 15.9627 32.6021 15.8527 32.6814C15.7426 32.7607 15.6511 32.863 15.5844 32.9811L8.43125 45.8718Z" fill="#E5750F"></path><path d="M59.8532 32.2406L53.2907 21.1125C53.1661 20.9119 52.9705 20.7658 52.7428 20.7032C52.5151 20.6406 52.2722 20.6663 52.0626 20.775L40.7376 27.2344C40.63 27.2959 40.5357 27.3781 40.46 27.4762C40.3844 27.5744 40.329 27.6866 40.297 27.8063C40.265 27.9254 40.2568 28.0496 40.2729 28.1719C40.289 28.2941 40.329 28.412 40.3907 28.5188L47.3751 40.3125H40.8126L41.5345 36.4406C41.5586 36.2468 41.5215 36.0502 41.4285 35.8784C41.3354 35.7066 41.191 35.5682 41.0155 35.4825C40.8399 35.3967 40.6419 35.368 40.4493 35.4003C40.2566 35.4326 40.0788 35.5243 39.9407 35.6625L29.0751 46.875C28.9211 47.0322 28.8274 47.2386 28.8102 47.458C28.7931 47.6774 28.8537 47.8958 28.9814 48.075L37.2314 59.55C37.3156 59.6797 37.429 59.7878 37.5625 59.866C37.6959 59.9441 37.8458 59.99 38.0001 60C38.212 59.9668 38.4109 59.8769 38.5759 59.7399C38.7409 59.603 38.8659 59.424 38.9376 59.2219L39.697 55.3125H46.6064C47.4292 55.3125 48.2375 55.0959 48.95 54.6845C49.6626 54.2731 50.2543 53.6813 50.6657 52.9688L57.6876 40.8375C57.7789 40.6896 57.8272 40.5192 57.8272 40.3453C57.8272 40.1715 57.7789 40.0011 57.6876 39.8531C57.5987 39.7066 57.4734 39.5856 57.3239 39.5019C57.1744 39.4181 57.0058 39.3744 56.8345 39.375H49.3345L42.4814 28.3969L52.1657 22.8656L58.2407 33.1781C58.4987 33.6172 58.6347 34.1173 58.6347 34.6266C58.6347 35.1359 58.4987 35.6359 58.2407 36.075L56.8439 38.9719L58.5314 39.7781L59.872 36.9656C60.2876 36.247 60.5048 35.4308 60.5015 34.6006C60.4982 33.7704 60.2745 32.956 59.8532 32.2406ZM46.7376 53.4375H38.9376C38.7183 53.4331 38.5044 53.5057 38.3331 53.6428C38.1618 53.7798 38.0439 53.9726 38.0001 54.1875L37.4751 56.775L30.9126 47.5781L39.3501 38.8875L39.0314 41.1188C39.0126 41.2526 39.023 41.3889 39.0618 41.5184C39.1006 41.6478 39.167 41.7674 39.2564 41.8688C39.3463 41.9712 39.4575 42.0527 39.5821 42.1078C39.7068 42.1628 39.842 42.19 39.9782 42.1875H54.8751L49.1657 52.0313C48.9195 52.4577 48.5657 52.812 48.1396 53.0588C47.7135 53.3056 47.23 53.4362 46.7376 53.4375Z" fill="#E5750F"></path></g><defs><clipPath id="clip0"><rect width="60" height="60" fill="white" transform="translate(0.5)"></rect></clipPath></defs></svg> 