<?xml version="1.0" encoding="UTF-8"?> <svg xmlns="http://www.w3.org/2000/svg" width="61" height="60" viewBox="0 0 61 60" fill="none"><g clip-path="url(#clip0)"><path d="M29.4875 22.8778C29.8784 23.249 30.5284 23.174 30.8255 22.7258L36.6753 13.8974C36.9435 13.4927 36.8328 12.947 36.4281 12.6788C36.0239 12.411 35.4782 12.5218 35.21 12.926L29.9384 20.8819L27.0092 18.1006C26.6571 17.7664 26.101 17.781 25.7663 18.1331C25.4322 18.4851 25.4468 19.0413 25.7988 19.3754C25.7984 19.3754 29.4843 22.875 29.4875 22.8778Z" fill="#E5750F"></path><path d="M30.0871 36.2833C30.2551 36.3602 30.441 36.4009 30.6259 36.4009H30.6332C30.8214 36.4 31.01 36.357 31.1784 36.2764C44.5433 29.9204 46.8083 16.2067 47.1837 12.155C47.2698 11.2299 46.7488 10.3683 45.8878 10.0113C43.2272 8.90671 41.4186 6.43662 41.1678 3.56506C41.0904 2.68112 40.3351 1.99219 39.4452 1.99219H39.4347L21.429 2.09793C20.5212 2.10297 19.7838 2.79282 19.7142 3.70239C19.4926 6.57486 17.7106 9.06281 15.0633 10.1953C14.211 10.5597 13.7028 11.4258 13.7999 12.3505C14.2229 16.3976 16.6486 30.0842 30.0871 36.2833ZM15.7545 11.8112C19.0006 10.4233 21.1873 7.37595 21.4652 3.85529L39.4191 3.75C39.7382 7.26288 41.956 10.2823 45.2139 11.6345C45.3595 11.6954 45.4479 11.8391 45.4337 11.993C45.0812 15.7901 42.9723 28.5933 30.6227 34.5932C18.2022 28.7393 15.945 15.9608 15.5476 12.1678C15.5316 12.0145 15.6149 11.8712 15.7545 11.8112Z" fill="#E5750F"></path><path d="M17.9491 16.6838C18.0553 17.0747 18.5511 17.4327 19.0281 17.3013C19.4959 17.1722 19.7728 16.6911 19.6456 16.2228C19.4217 15.3979 19.2336 14.5616 19.0857 13.733C21.4734 12.1771 23.2454 9.85486 24.1147 7.14261L36.8076 7.06799C37.7085 9.76926 39.5075 12.0714 41.9135 13.5989C41.7757 14.4298 41.5972 15.2688 41.3825 16.0969C41.2607 16.5671 41.5432 17.0468 42.0128 17.1686C42.4834 17.2903 42.9627 17.0079 43.0845 16.5378C43.3362 15.5655 43.5413 14.5785 43.6933 13.6044C43.7784 13.0601 43.5294 12.525 43.0597 12.2412C40.8185 10.8876 39.1619 8.76401 38.3951 6.26187C38.2225 5.69928 37.692 5.30835 37.1033 5.30835H37.0951L23.8062 5.38617C23.2138 5.38983 22.6838 5.78854 22.5176 6.35526C21.7806 8.86609 20.1487 11.0089 17.9235 12.389C17.457 12.6779 17.2149 13.2158 17.306 13.7596C17.4698 14.7314 17.6859 15.7152 17.9491 16.6838Z" fill="#E5750F"></path><path d="M41.3077 19.2896C40.8591 19.1038 40.3455 19.318 40.1601 19.7666C38.129 24.6894 34.9137 28.4321 30.6006 30.8953C26.2542 28.4797 22.9921 24.7686 20.9038 19.8614C20.7134 19.4151 20.197 19.2073 19.7507 19.3972C19.3039 19.5872 19.0961 20.1036 19.2861 20.5499C21.5653 25.9048 25.156 29.9418 29.9584 32.5479C30.1607 32.6582 30.3823 32.7126 30.6034 32.7126C30.83 32.7126 31.0561 32.6554 31.2621 32.5405C36.0283 29.8814 39.5687 25.8091 41.7852 20.4368C41.9706 19.9882 41.7568 19.4746 41.3077 19.2896Z" fill="#E5750F"></path><path d="M6.13925 46.9656C4.42493 46.9656 3.02966 48.3604 3.02966 50.0752C3.02966 51.7899 4.42493 53.1847 6.13925 53.1847C7.85404 53.1847 9.2493 51.7899 9.2493 50.0752C9.2493 48.3604 7.85449 46.9656 6.13925 46.9656ZM6.13925 51.4269C5.39401 51.4269 4.78748 50.8209 4.78748 50.0752C4.78748 49.3299 5.39401 48.7234 6.13925 48.7234C6.88495 48.7234 7.49149 49.3299 7.49149 50.0752C7.49149 50.8209 6.88495 51.4269 6.13925 51.4269Z" fill="#E5750F"></path><path d="M59.8696 38.3609C58.7431 36.7057 56.4749 36.2671 54.8136 37.3831L43.3238 45.0731L40.8711 44.9353L40.8084 44.3073C40.5639 41.8477 38.6839 39.888 36.2367 39.542C36.2211 39.5397 36.206 39.5378 36.1905 39.5365L23.8098 38.4516C23.3909 38.3861 22.0501 38.0011 18.3661 35.8881C16.4512 34.7899 14.2938 34.1701 12.102 34.0859V31.7865C12.102 30.6325 11.1636 29.6941 10.0096 29.6941H2.59244C1.43887 29.6941 0.5 30.633 0.5 31.7865V54.4326C0.5 55.5861 1.43887 56.525 2.59244 56.525H10.0096C11.1631 56.525 12.102 55.5861 12.102 54.4326V53.8086L22.9245 57.907C22.9483 57.9161 23.8272 58.2448 25.4431 58.0924C25.4477 58.0919 43.4254 55.5001 43.4254 55.5001C43.43 55.4996 43.4341 55.4987 43.4387 55.4978C44.9749 55.2529 46.4238 54.6033 47.629 53.6205C47.64 53.6113 47.6506 53.6022 47.6611 53.593L59.275 43.1473C60.6437 41.9319 60.8996 39.8743 59.8696 38.3609ZM58.1036 41.8367L46.502 52.2715C45.5416 53.0501 44.389 53.5651 43.1677 53.761L25.1986 56.3515C25.1945 56.352 25.1886 56.3529 25.1831 56.3538C25.1803 56.3543 25.1771 56.3547 25.1744 56.3552C24.637 56.4399 24.0771 56.4041 23.5099 56.249L12.102 51.929V41.8917C12.102 41.406 11.7083 41.0128 11.2231 41.0128C10.7374 41.0128 10.3442 41.406 10.3442 41.8917V54.4326C10.3442 54.617 10.1941 54.7672 10.0096 54.7672H2.59244C2.40796 54.7672 2.25781 54.617 2.25781 54.4326V31.7865C2.25781 31.6021 2.40796 31.4519 2.59244 31.4519H10.0096C10.1941 31.4519 10.3442 31.6021 10.3442 31.7865V37.9215C10.3442 38.4072 10.7379 38.8004 11.2231 38.8004C11.7088 38.8004 12.102 38.4067 12.102 37.9215V35.8455C13.9875 35.9288 15.8424 36.4672 17.4913 37.4134C21.9348 39.9617 23.1758 40.1375 23.5836 40.1952C23.5992 40.1975 23.6143 40.1989 23.6299 40.2007L36.0119 41.2856C37.6443 41.5268 38.8958 42.8379 39.0593 44.4812L39.1059 44.9495L22.529 45.9731C22.5175 45.9722 22.5061 45.9713 22.496 45.9703C21.9586 45.9218 21.4734 45.6678 21.1287 45.2549C20.8178 44.8818 20.2635 44.8314 19.8909 45.1427C19.5178 45.4535 19.4674 46.0079 19.7787 46.3805C20.4237 47.1541 21.3337 47.6169 22.3394 47.7213C22.8823 47.778 40.0727 46.651 40.0727 46.651L43.5188 46.8447C43.7092 46.8557 43.8983 46.8035 44.0567 46.6973L55.7928 38.843C56.6548 38.2639 57.8317 38.4909 58.4162 39.3497C58.9505 40.1352 58.8177 41.2027 58.1036 41.8367Z" fill="#E5750F"></path></g><defs><clipPath id="clip0"><rect width="60" height="60" fill="white" transform="translate(0.5)"></rect></clipPath></defs></svg> 